<svg width="94" height="16" viewBox="0 0 94 16" fill="none" xmlns="http://www.w3.org/2000/svg">
<path d="M10.7273 6.68182C10.7273 7.90909 10.5057 8.9697 10.0625 9.86364C9.61932 10.7576 9.01136 11.447 8.23864 11.9318C7.46591 12.4167 6.58333 12.6591 5.59091 12.6591C4.59849 12.6591 3.71591 12.4167 2.94318 11.9318C2.17045 11.447 1.5625 10.7576 1.11932 9.86364C0.676136 8.9697 0.454545 7.90909 0.454545 6.68182C0.454545 5.45455 0.676136 4.39394 1.11932 3.5C1.5625 2.60606 2.17045 1.91667 2.94318 1.43182C3.71591 0.946969 4.59849 0.704545 5.59091 0.704545C6.58333 0.704545 7.46591 0.946969 8.23864 1.43182C9.01136 1.91667 9.61932 2.60606 10.0625 3.5C10.5057 4.39394 10.7273 5.45455 10.7273 6.68182ZM9.36364 6.68182C9.36364 5.67424 9.19508 4.82386 8.85795 4.13068C8.52462 3.4375 8.07197 2.91288 7.5 2.55682C6.93182 2.20076 6.29545 2.02273 5.59091 2.02273C4.88636 2.02273 4.24811 2.20076 3.67614 2.55682C3.10795 2.91288 2.6553 3.4375 2.31818 4.13068C1.98485 4.82386 1.81818 5.67424 1.81818 6.68182C1.81818 7.68939 1.98485 8.53977 2.31818 9.23295C2.6553 9.92614 3.10795 10.4508 3.67614 10.8068C4.24811 11.1629 4.88636 11.3409 5.59091 11.3409C6.29545 11.3409 6.93182 11.1629 7.5 10.8068C8.07197 10.4508 8.52462 9.92614 8.85795 9.23295C9.19508 8.53977 9.36364 7.68939 9.36364 6.68182ZM13.0966 12.5V0.863636H14.4375V5.15909H14.5511C14.6496 5.00758 14.786 4.81439 14.9602 4.57955C15.1383 4.34091 15.392 4.12879 15.7216 3.94318C16.0549 3.75379 16.5057 3.65909 17.0739 3.65909C17.8087 3.65909 18.4564 3.8428 19.017 4.21023C19.5777 4.57765 20.0152 5.09848 20.3295 5.77273C20.6439 6.44697 20.8011 7.24242 20.8011 8.15909C20.8011 9.08333 20.6439 9.88447 20.3295 10.5625C20.0152 11.2367 19.5795 11.7595 19.0227 12.1307C18.4659 12.4981 17.8239 12.6818 17.0966 12.6818C16.536 12.6818 16.0871 12.589 15.75 12.4034C15.4129 12.214 15.1534 12 14.9716 11.7614C14.7898 11.5189 14.6496 11.3182 14.5511 11.1591H14.392V12.5H13.0966ZM14.4148 8.13636C14.4148 8.79545 14.5114 9.37689 14.7045 9.88068C14.8977 10.3807 15.1799 10.7727 15.5511 11.0568C15.9223 11.3371 16.3769 11.4773 16.9148 11.4773C17.4754 11.4773 17.9432 11.3295 18.3182 11.0341C18.697 10.7348 18.9811 10.3333 19.1705 9.82955C19.3636 9.32197 19.4602 8.75758 19.4602 8.13636C19.4602 7.52273 19.3655 6.9697 19.1761 6.47727C18.9905 5.98106 18.7083 5.58902 18.3295 5.30114C17.9545 5.00947 17.483 4.86364 16.9148 4.86364C16.3693 4.86364 15.911 5.00189 15.5398 5.27841C15.1686 5.55114 14.8883 5.93371 14.6989 6.42614C14.5095 6.91477 14.4148 7.48485 14.4148 8.13636ZM29.0341 5.72727L27.8295 6.06818C27.7538 5.86742 27.642 5.67235 27.4943 5.48295C27.3504 5.28977 27.1534 5.13068 26.9034 5.00568C26.6534 4.88068 26.3333 4.81818 25.9432 4.81818C25.4091 4.81818 24.964 4.94129 24.608 5.1875C24.2557 5.42992 24.0795 5.73864 24.0795 6.11364C24.0795 6.44697 24.2008 6.71023 24.4432 6.90341C24.6856 7.09659 25.0644 7.25758 25.5795 7.38636L26.875 7.70455C27.6553 7.89394 28.2367 8.18371 28.6193 8.57386C29.0019 8.96023 29.1932 9.45833 29.1932 10.0682C29.1932 10.5682 29.0492 11.0152 28.7614 11.4091C28.4773 11.803 28.0795 12.1136 27.5682 12.3409C27.0568 12.5682 26.4621 12.6818 25.7841 12.6818C24.8939 12.6818 24.1572 12.4886 23.5739 12.1023C22.9905 11.7159 22.6212 11.1515 22.4659 10.4091L23.7386 10.0909C23.8598 10.5606 24.089 10.9129 24.4261 11.1477C24.767 11.3826 25.2121 11.5 25.7614 11.5C26.3864 11.5 26.8826 11.3674 27.25 11.1023C27.6212 10.8333 27.8068 10.5114 27.8068 10.1364C27.8068 9.83333 27.7008 9.57955 27.4886 9.375C27.2765 9.16667 26.9508 9.01136 26.5114 8.90909L25.0568 8.56818C24.2576 8.37879 23.6705 8.08523 23.2955 7.6875C22.9242 7.28598 22.7386 6.78409 22.7386 6.18182C22.7386 5.68939 22.8769 5.25379 23.1534 4.875C23.4337 4.49621 23.8144 4.19886 24.2955 3.98295C24.7803 3.76705 25.3295 3.65909 25.9432 3.65909C26.8068 3.65909 27.4848 3.84848 27.9773 4.22727C28.4735 4.60606 28.8258 5.10606 29.0341 5.72727ZM34.8707 12.6818C34.0298 12.6818 33.3045 12.4962 32.6946 12.125C32.0885 11.75 31.6207 11.2273 31.2912 10.5568C30.9654 9.88258 30.8026 9.09848 30.8026 8.20455C30.8026 7.31061 30.9654 6.52273 31.2912 5.84091C31.6207 5.1553 32.0791 4.62121 32.6662 4.23864C33.2571 3.85227 33.9465 3.65909 34.7344 3.65909C35.1889 3.65909 35.6378 3.73485 36.081 3.88636C36.5241 4.03788 36.9276 4.28409 37.2912 4.625C37.6548 4.96212 37.9446 5.40909 38.1605 5.96591C38.3764 6.52273 38.4844 7.20833 38.4844 8.02273V8.59091H31.7571V7.43182H37.1207C37.1207 6.93939 37.0223 6.5 36.8253 6.11364C36.6321 5.72727 36.3556 5.42235 35.9957 5.19886C35.6397 4.97538 35.2192 4.86364 34.7344 4.86364C34.2003 4.86364 33.7382 4.99621 33.348 5.26136C32.9616 5.52273 32.6643 5.86364 32.456 6.28409C32.2476 6.70455 32.1435 7.1553 32.1435 7.63636V8.40909C32.1435 9.06818 32.2571 9.62689 32.4844 10.0852C32.7154 10.5398 33.0355 10.8864 33.4446 11.125C33.8537 11.3598 34.3291 11.4773 34.8707 11.4773C35.223 11.4773 35.5412 11.428 35.8253 11.3295C36.1132 11.2273 36.3613 11.0758 36.5696 10.875C36.7779 10.6705 36.9389 10.4167 37.0526 10.1136L38.348 10.4773C38.2116 10.9167 37.9825 11.303 37.6605 11.6364C37.3385 11.9659 36.9408 12.2235 36.4673 12.4091C35.9938 12.5909 35.4616 12.6818 34.8707 12.6818ZM40.5241 12.5V3.77273H41.8196V5.09091H41.9105C42.0696 4.65909 42.3575 4.30871 42.7741 4.03977C43.1908 3.77083 43.6605 3.63636 44.1832 3.63636C44.2817 3.63636 44.4048 3.63826 44.5526 3.64205C44.7003 3.64583 44.812 3.65152 44.8878 3.65909V5.02273C44.8423 5.01136 44.7382 4.99432 44.5753 4.97159C44.4162 4.94508 44.2476 4.93182 44.0696 4.93182C43.6454 4.93182 43.2666 5.02083 42.9332 5.19886C42.6037 5.37311 42.3423 5.61553 42.1491 5.92614C41.9598 6.23295 41.8651 6.58333 41.8651 6.97727V12.5H40.5241ZM53.8793 3.77273L50.652 12.5H49.2884L46.0611 3.77273H47.5156L49.9247 10.7273H50.0156L52.4247 3.77273H53.8793ZM57.9517 12.7045C57.3987 12.7045 56.8968 12.6004 56.446 12.392C55.9953 12.1799 55.6373 11.875 55.3722 11.4773C55.107 11.0758 54.9744 10.5909 54.9744 10.0227C54.9744 9.52273 55.0729 9.11742 55.2699 8.80682C55.4669 8.49242 55.7301 8.24621 56.0597 8.06818C56.3892 7.89015 56.7528 7.75758 57.1506 7.67045C57.5521 7.57955 57.9555 7.50758 58.3608 7.45455C58.8911 7.38636 59.321 7.33523 59.6506 7.30114C59.9839 7.26326 60.2263 7.20076 60.3778 7.11364C60.5331 7.02652 60.6108 6.875 60.6108 6.65909V6.61364C60.6108 6.05303 60.4574 5.61742 60.1506 5.30682C59.8475 4.99621 59.3873 4.84091 58.7699 4.84091C58.1297 4.84091 57.6278 4.98106 57.2642 5.26136C56.9006 5.54167 56.6449 5.84091 56.4972 6.15909L55.2244 5.70455C55.4517 5.17424 55.7547 4.76136 56.1335 4.46591C56.5161 4.16667 56.9328 3.95833 57.3835 3.84091C57.8381 3.7197 58.285 3.65909 58.7244 3.65909C59.0047 3.65909 59.3267 3.69318 59.6903 3.76136C60.0578 3.82576 60.4119 3.96023 60.7528 4.16477C61.0975 4.36932 61.3835 4.67803 61.6108 5.09091C61.8381 5.50379 61.9517 6.05682 61.9517 6.75V12.5H60.6108V11.3182H60.5426C60.4517 11.5076 60.3002 11.7102 60.0881 11.9261C59.8759 12.142 59.5938 12.3258 59.2415 12.4773C58.8892 12.6288 58.4593 12.7045 57.9517 12.7045ZM58.1562 11.5C58.6866 11.5 59.1335 11.3958 59.4972 11.1875C59.8646 10.9792 60.1411 10.7102 60.3267 10.3807C60.5161 10.0511 60.6108 9.70455 60.6108 9.34091V8.11364C60.554 8.18182 60.429 8.24432 60.2358 8.30114C60.0464 8.35417 59.8267 8.40151 59.5767 8.44318C59.3305 8.48106 59.09 8.51515 58.8551 8.54545C58.6241 8.57197 58.4366 8.5947 58.2926 8.61364C57.9441 8.65909 57.6184 8.73295 57.3153 8.83523C57.0161 8.93371 56.7737 9.08333 56.5881 9.28409C56.4063 9.48106 56.3153 9.75 56.3153 10.0909C56.3153 10.5568 56.4877 10.9091 56.8324 11.1477C57.1809 11.3826 57.6222 11.5 58.1562 11.5ZM67.9446 12.6818C67.1264 12.6818 66.4219 12.4886 65.831 12.1023C65.2401 11.7159 64.7855 11.1837 64.4673 10.5057C64.1491 9.82765 63.9901 9.05303 63.9901 8.18182C63.9901 7.29545 64.1529 6.51326 64.4787 5.83523C64.8082 5.15341 65.2666 4.62121 65.8537 4.23864C66.4446 3.85227 67.134 3.65909 67.9219 3.65909C68.5355 3.65909 69.0885 3.77273 69.581 4C70.0734 4.22727 70.4768 4.54545 70.7912 4.95455C71.1056 5.36364 71.3007 5.84091 71.3764 6.38636H70.0355C69.9332 5.98864 69.706 5.63636 69.3537 5.32955C69.0052 5.01894 68.5355 4.86364 67.9446 4.86364C67.4219 4.86364 66.9635 5 66.5696 5.27273C66.1795 5.54167 65.8745 5.92235 65.6548 6.41477C65.4389 6.90341 65.331 7.47727 65.331 8.13636C65.331 8.81061 65.437 9.39773 65.6491 9.89773C65.8651 10.3977 66.1681 10.786 66.5582 11.0625C66.9522 11.339 67.4143 11.4773 67.9446 11.4773C68.2931 11.4773 68.6094 11.4167 68.8935 11.2955C69.1776 11.1742 69.4181 11 69.6151 10.7727C69.812 10.5455 69.9522 10.2727 70.0355 9.95455H71.3764C71.3007 10.4697 71.1132 10.9337 70.8139 11.3466C70.5185 11.7557 70.1264 12.0814 69.6378 12.3239C69.1529 12.5625 68.5885 12.6818 67.9446 12.6818ZM67.3082 12.4545H68.4219L68.331 12.9091C68.6264 12.9545 68.8973 13.0777 69.1435 13.2784C69.3897 13.483 69.5128 13.8068 69.5128 14.25C69.5128 14.7386 69.3101 15.1364 68.9048 15.4432C68.5033 15.7538 67.9105 15.9091 67.1264 15.9091L67.081 15.0227C67.4332 15.0227 67.7249 14.9659 67.956 14.8523C68.1908 14.7424 68.3082 14.5568 68.3082 14.2955C68.3082 14.0341 68.2116 13.8561 68.0185 13.7614C67.8253 13.6667 67.5128 13.6023 67.081 13.5682L67.3082 12.4545ZM75.9048 12.7045C75.3518 12.7045 74.8499 12.6004 74.3991 12.392C73.9484 12.1799 73.5904 11.875 73.3253 11.4773C73.0601 11.0758 72.9276 10.5909 72.9276 10.0227C72.9276 9.52273 73.026 9.11742 73.223 8.80682C73.42 8.49242 73.6832 8.24621 74.0128 8.06818C74.3423 7.89015 74.706 7.75758 75.1037 7.67045C75.5052 7.57955 75.9086 7.50758 76.3139 7.45455C76.8442 7.38636 77.2741 7.33523 77.6037 7.30114C77.937 7.26326 78.1795 7.20076 78.331 7.11364C78.4863 7.02652 78.5639 6.875 78.5639 6.65909V6.61364C78.5639 6.05303 78.4105 5.61742 78.1037 5.30682C77.8007 4.99621 77.3404 4.84091 76.723 4.84091C76.0829 4.84091 75.581 4.98106 75.2173 5.26136C74.8537 5.54167 74.598 5.84091 74.4503 6.15909L73.1776 5.70455C73.4048 5.17424 73.7079 4.76136 74.0866 4.46591C74.4692 4.16667 74.8859 3.95833 75.3366 3.84091C75.7912 3.7197 76.2382 3.65909 76.6776 3.65909C76.9579 3.65909 77.2798 3.69318 77.6435 3.76136C78.0109 3.82576 78.3651 3.96023 78.706 4.16477C79.0507 4.36932 79.3366 4.67803 79.5639 5.09091C79.7912 5.50379 79.9048 6.05682 79.9048 6.75V12.5H78.5639V11.3182H78.4957C78.4048 11.5076 78.2533 11.7102 78.0412 11.9261C77.8291 12.142 77.5469 12.3258 77.1946 12.4773C76.8423 12.6288 76.4124 12.7045 75.9048 12.7045ZM76.1094 11.5C76.6397 11.5 77.0866 11.3958 77.4503 11.1875C77.8177 10.9792 78.0942 10.7102 78.2798 10.3807C78.4692 10.0511 78.5639 9.70455 78.5639 9.34091V8.11364C78.5071 8.18182 78.3821 8.24432 78.1889 8.30114C77.9995 8.35417 77.7798 8.40151 77.5298 8.44318C77.2836 8.48106 77.0431 8.51515 76.8082 8.54545C76.5772 8.57197 76.3897 8.5947 76.2457 8.61364C75.8973 8.65909 75.5715 8.73295 75.2685 8.83523C74.9692 8.93371 74.7268 9.08333 74.5412 9.28409C74.3594 9.48106 74.2685 9.75 74.2685 10.0909C74.2685 10.5568 74.4408 10.9091 74.7855 11.1477C75.134 11.3826 75.5753 11.5 76.1094 11.5ZM75.0185 2.72727L73.973 2.68182C73.973 2.10227 74.1378 1.62879 74.4673 1.26136C74.8007 0.890151 75.2116 0.704545 75.7003 0.704545C75.9162 0.704545 76.1075 0.742424 76.2741 0.818181C76.4408 0.890151 76.5999 0.973484 76.7514 1.06818C76.9029 1.16288 77.0582 1.24811 77.2173 1.32386C77.3802 1.39583 77.5639 1.43182 77.7685 1.43182C77.9844 1.43182 78.1662 1.34848 78.3139 1.18182C78.4654 1.01136 78.5412 0.806818 78.5412 0.568181L79.5639 0.659091C79.5639 1.25 79.3973 1.7197 79.0639 2.06818C78.7344 2.41667 78.3253 2.59091 77.8366 2.59091C77.5753 2.59091 77.3594 2.55492 77.1889 2.48295C77.0185 2.4072 76.867 2.32197 76.7344 2.22727C76.6018 2.13258 76.4616 2.04924 76.3139 1.97727C76.1662 1.90151 75.9844 1.86364 75.7685 1.86364C75.5526 1.86364 75.3726 1.94886 75.2287 2.11932C75.0885 2.28598 75.0185 2.48864 75.0185 2.72727ZM85.8977 12.6818C85.1098 12.6818 84.4186 12.4943 83.8239 12.1193C83.233 11.7443 82.7708 11.2197 82.4375 10.5455C82.108 9.87121 81.9432 9.08333 81.9432 8.18182C81.9432 7.27273 82.108 6.47917 82.4375 5.80114C82.7708 5.12311 83.233 4.59659 83.8239 4.22159C84.4186 3.84659 85.1098 3.65909 85.8977 3.65909C86.6856 3.65909 87.375 3.84659 87.9659 4.22159C88.5606 4.59659 89.0227 5.12311 89.3523 5.80114C89.6856 6.47917 89.8523 7.27273 89.8523 8.18182C89.8523 9.08333 89.6856 9.87121 89.3523 10.5455C89.0227 11.2197 88.5606 11.7443 87.9659 12.1193C87.375 12.4943 86.6856 12.6818 85.8977 12.6818ZM85.8977 11.4773C86.4962 11.4773 86.9886 11.3239 87.375 11.017C87.7614 10.7102 88.0473 10.3068 88.233 9.80682C88.4186 9.30682 88.5114 8.76515 88.5114 8.18182C88.5114 7.59848 88.4186 7.05492 88.233 6.55114C88.0473 6.04735 87.7614 5.64015 87.375 5.32955C86.9886 5.01894 86.4962 4.86364 85.8977 4.86364C85.2992 4.86364 84.8068 5.01894 84.4205 5.32955C84.0341 5.64015 83.7481 6.04735 83.5625 6.55114C83.3769 7.05492 83.2841 7.59848 83.2841 8.18182C83.2841 8.76515 83.3769 9.30682 83.5625 9.80682C83.7481 10.3068 84.0341 10.7102 84.4205 11.017C84.8068 11.3239 85.2992 11.4773 85.8977 11.4773ZM92.8764 12.5909C92.5961 12.5909 92.3556 12.4905 92.1548 12.2898C91.9541 12.089 91.8537 11.8485 91.8537 11.5682C91.8537 11.2879 91.9541 11.0473 92.1548 10.8466C92.3556 10.6458 92.5961 10.5455 92.8764 10.5455C93.1567 10.5455 93.3973 10.6458 93.598 10.8466C93.7988 11.0473 93.8991 11.2879 93.8991 11.5682C93.8991 11.7538 93.8518 11.9242 93.7571 12.0795C93.6662 12.2348 93.5431 12.3598 93.3878 12.4545C93.2363 12.5455 93.0658 12.5909 92.8764 12.5909ZM92.8764 6.11364C92.5961 6.11364 92.3556 6.01326 92.1548 5.8125C91.9541 5.61174 91.8537 5.37121 91.8537 5.09091C91.8537 4.81061 91.9541 4.57008 92.1548 4.36932C92.3556 4.16856 92.5961 4.06818 92.8764 4.06818C93.1567 4.06818 93.3973 4.16856 93.598 4.36932C93.7988 4.57008 93.8991 4.81061 93.8991 5.09091C93.8991 5.27652 93.8518 5.44697 93.7571 5.60227C93.6662 5.75758 93.5431 5.88258 93.3878 5.97727C93.2363 6.06818 93.0658 6.11364 92.8764 6.11364Z" fill="black"/>
</svg>
